<svg width="24" height="24" viewBox="0 0 24 24" fill="none" xmlns="http://www.w3.org/2000/svg">
  <path d="M5 3h14a1 1 0 0 1 1 1v5a1 1 0 0 1-1 1H5a1 1 0 0 1-1-1V4a1 1 0 0 1 1-1z" stroke="currentColor" stroke-width="1.5"/>
  <circle cx="7" cy="6.5" r="1" fill="currentColor"/>
  <circle cx="10" cy="6.5" r="1" fill="currentColor"/>
  <path d="M5 14h14a1 1 0 0 1 1 1v5a1 1 0 0 1-1 1H5a1 1 0 0 1-1-1v-5a1 1 0 0 1 1-1z" stroke="currentColor" stroke-width="1.5"/>
  <circle cx="7" cy="17.5" r="1" fill="currentColor"/>
  <circle cx="10" cy="17.5" r="1" fill="currentColor"/>
  <path d="M12 10v4" stroke="currentColor" stroke-width="1.5" stroke-linecap="round"/>
  <path d="M9.5 12.5L12 10l2.5 2.5" stroke="currentColor" stroke-width="1.5" stroke-linecap="round" stroke-linejoin="round"/>
</svg>
